<svg color="#FFF5F5" width="894" height="732" viewBox="0 0 894 732" fill="none" xmlns="http://www.w3.org/2000/svg"><path d="M536.912 529.522c.923-1.344 1.41-3.428 3.834-2.267a.806.806 0 0 0 .735-.274c.913-2.003 2.82-2.997 4.357-4.366l2.49-.588c.269.629.117 1.415.862 2.028.888-1.805 2.881-1.48 4.169-2.216 2.8-1.587 5.63-.786 8.404-1.237.563-.091.751.233.877.669l-.106.137.066-.157c1.45-1.227 2.82-1.202 4.59-.35.755.37 2.094-.243 3.317.117.958.279 2.282-.538 2.246 1.339a5.448 5.448 0 0 1 1.77.035c1.958.38 3.551 1.111 4.499 2.977.507.968 1.811 1.268 2.343 2.079.857 1.313 1.177 2.5 3.347 2.617 1.76.096 2.1 3.042.888 4.822-.832 1.212.583 1.719 1.014 1.871 1.491.507 1.573 1.466 1.567 2.799 0 1.177.431 2.353.705 3.525.082.334.34.634.411.968.396 1.963-2.105 3.322-1.521 4.929.725 2.029-.071 3.281-.756 4.904a46.397 46.397 0 0 1-7.258 11.455c-1.572 1.897-3.514 3.804-6.086 4.61-1.521.477-2.647 1.876-4.392 1.922-2.723.076-5.213 1.486-7.962 1.44-.416 0-.964.208-1.222 0-2.978-2.221-6.649-1.668-9.956-2.323-5.026-1.014-8.708-3.767-12.045-7.231-1.324-1.379-3.261-2.535-3.018-4.974.071-.726-1.014-.786-1.324-1.496-.309-.71-.776-1.38-.644-2.161.152-.872.685-1.774-.71-2.084 1.253-1.384-.963-1.445-.903-2.363.071-1.187.579-2.201 1.015-3.281.37-.892 1.328-2.662-.35-3.737a.56.56 0 0 1-.137-.548c1.43-2.297.649-5.451 2.855-7.419a1.01 1.01 0 0 0 .157-1.338c-1.06-2.14.056-2.992 1.923-3.469.278-.451-.127-.898-.051-1.364ZM123.142 56.206c.923-1.344 1.41-3.428 3.834-2.267a.803.803 0 0 0 .736-.274c.913-2.003 2.82-2.997 4.356-4.366l2.491-.588c.268.628.116 1.414.862 2.028.887-1.805 2.881-1.48 4.169-2.216 2.799-1.587 5.629-.786 8.404-1.237.562-.092.75.233.877.669l-.107.137.066-.157c1.451-1.227 2.82-1.202 4.59-.35.756.37 2.095-.244 3.317.117.959.278 2.282-.538 2.247 1.338a5.479 5.479 0 0 1 1.77.036c1.958.38 3.55 1.11 4.498 2.976.508.969 1.811 1.268 2.344 2.08.857 1.313 1.176 2.5 3.347 2.616 1.76.096 2.1 3.043.887 4.823-.831 1.212.584 1.719 1.015 1.87 1.491.508 1.572 1.466 1.567 2.8 0 1.177.431 2.353.705 3.524.081.335.34.634.411.969.395 1.962-2.105 3.321-1.522 4.929.725 2.028-.071 3.28-.756 4.904a46.406 46.406 0 0 1-7.257 11.455c-1.572 1.896-3.515 3.803-6.086 4.61-1.522.476-2.648 1.876-4.392 1.921-2.724.076-5.214 1.486-7.963 1.44-.416 0-.963.208-1.222 0-2.977-2.22-6.649-1.668-9.956-2.322-5.026-1.014-8.708-3.768-12.045-7.231-1.324-1.38-3.261-2.536-3.018-4.975.071-.725-1.014-.786-1.323-1.496-.31-.71-.776-1.38-.644-2.16.152-.872.684-1.775-.71-2.084 1.252-1.385-.964-1.445-.903-2.363.071-1.187.578-2.201 1.014-3.281.37-.893 1.329-2.663-.35-3.738a.562.562 0 0 1-.137-.547c1.43-2.297.649-5.452 2.856-7.42a1.017 1.017 0 0 0 .157-1.338c-1.06-2.14.056-2.992 1.922-3.468.279-.452-.127-.898-.051-1.364ZM302.361 559.036c37.155-17.748 53.425-60.01 36.653-95.208-17.015-35.71-59.029-49.893-95.611-32.272-37.373 18.002-53.993 61.395-37.099 96.856 16.807 35.335 58.425 48.601 96.057 30.624ZM767.319 690.087c30.309-14.417 43.581-48.746 29.899-77.337-13.88-29.007-48.152-40.528-77.993-26.214-30.487 14.623-44.044 49.87-30.263 78.675 13.71 28.702 47.66 39.478 78.357 24.876ZM736.45 236.663c-41.639 29.771-54.298 112.956-24.517 154.589 29.781 41.633 101.657 41.242 143.29 11.47 41.633-29.771 51.254-87.662 21.473-129.31-29.78-41.648-98.608-66.521-140.246-36.749ZM6.054 323.059C20.32 343.723 61 350.615 81.693 336.35c20.692-14.265 21.063-49.518 6.801-70.182a45.474 45.474 0 0 0-63.254-11.593C4.573 268.84-8.213 302.395 6.054 323.059ZM74.319 450.808c4.564 4.63 11.802 4.787 16.31.355a11.25 11.25 0 0 0 3.46-8.049 11.255 11.255 0 0 0-3.358-8.092c-4.61-4.65-12.04-4.802-16.585-.334-4.544 4.467-4.448 11.43.173 16.12ZM443.604 96.42c-9.479-39.904 10.286-82.328 48.688-94.245 14.434-4.483 29-1.242 43.023 2.536 8.993 2.408 18.259 5.765 25.866 10.994 13.531 9.335 24.567 21.805 27.519 38.54 1.521 8.488.106 17.935-1.907 26.495-3.15 13.347-7.871 26.334-12.06 39.427-1.978 6.182-6.086 10.177-12.396 12.378-2.982 1.014-5.269 3.935-8.064 5.68-3.961 2.479-7.84 5.852-12.197 6.78-20.697 4.422-41.425 5.319-61.631-2.673-2.399-.948-4.605-2.596-6.629-4.244-14.799-12.049-22.817-28.732-30.212-41.668Z" fill="currentColor"></path></svg>