<svg width="57" height="24" viewBox="0 0 57 24" fill="none" xmlns="http://www.w3.org/2000/svg"><path d="m3.164.417 1.148 1.818 2.15-.028L5.086 3.86l.69 2.036L3.782 5.1 2.058 6.386l.14-2.145L.443 3l2.083-.53.638-2.053Z" fill="url(#a)"></path><path d="m50.752 2.758 2.086 3.304 3.908-.05-2.498 3.005 1.256 3.7-3.63-1.447-3.132 2.338.254-3.9-3.19-2.255 3.787-.963 1.159-3.732Z" fill="url(#b)"></path><path d="m22.468 7.992 2.948 4.67 5.522-.072-3.53 4.247 1.775 5.23-5.13-2.046-4.425 3.304.36-5.51-4.51-3.189 5.352-1.36 1.638-5.274Z" fill="url(#c)"></path><defs><linearGradient id="a" x1="3.164" y1=".417" x2="3.998" y2="6.745" gradientUnits="userSpaceOnUse"><stop offset=".439" stop-color="#FB0"></stop><stop offset="1" stop-color="#FF976A"></stop></linearGradient><linearGradient id="b" x1="50.752" y1="2.758" x2="52.267" y2="14.261" gradientUnits="userSpaceOnUse"><stop offset=".439" stop-color="#FB0"></stop><stop offset="1" stop-color="#FF976A"></stop></linearGradient><linearGradient id="c" x1="22.468" y1="7.992" x2="24.61" y2="24.248" gradientUnits="userSpaceOnUse"><stop offset=".439" stop-color="#FB0"></stop><stop offset="1" stop-color="#FF976A"></stop></linearGradient></defs></svg>